<svg width="20" height="13" viewBox="0 0 20 13" fill="none" xmlns="http://www.w3.org/2000/svg">
<path d="M9.99967 2.00004C13.158 2.00004 15.9747 3.77504 17.3497 6.58337C15.9747 9.39171 13.158 11.1667 9.99967 11.1667C6.84134 11.1667 4.02467 9.39171 2.64967 6.58337C4.02467 3.77504 6.84134 2.00004 9.99967 2.00004ZM9.99967 0.333374C5.83301 0.333374 2.27467 2.92504 0.833008 6.58337C2.27467 10.2417 5.83301 12.8334 9.99967 12.8334C14.1663 12.8334 17.7247 10.2417 19.1663 6.58337C17.7247 2.92504 14.1663 0.333374 9.99967 0.333374ZM9.99967 4.50004C11.1497 4.50004 12.083 5.43337 12.083 6.58337C12.083 7.73337 11.1497 8.66671 9.99967 8.66671C8.84968 8.66671 7.91634 7.73337 7.91634 6.58337C7.91634 5.43337 8.84968 4.50004 9.99967 4.50004ZM9.99967 2.83337C7.93301 2.83337 6.24967 4.51671 6.24967 6.58337C6.24967 8.65004 7.93301 10.3334 9.99967 10.3334C12.0663 10.3334 13.7497 8.65004 13.7497 6.58337C13.7497 4.51671 12.0663 2.83337 9.99967 2.83337Z" fill="white"/>
</svg>
